<svg width="160" height="147" viewBox="0 0 160 147" fill="none" xmlns="http://www.w3.org/2000/svg">
<g id="features6.svg" clip-path="url(#clip0_1_236)">
<path id="Vector" d="M148.488 112.962C155.768 108.084 160.995 99.4163 159.791 90.7368C153.269 97.6843 144.5 102.101 135.035 103.205C131.383 103.618 127.279 103.697 124.715 106.33C123.12 107.968 122.464 110.342 122.458 112.629C122.452 114.915 123.03 117.158 123.604 119.372L123.477 119.928C132.229 119.493 141.209 117.839 148.488 112.962Z" fill="#F0F0F0"/>
<path id="Vector_2" d="M159.607 90.7374C156.947 97.485 152.229 103.223 146.122 107.136C144.822 108.002 143.394 108.657 141.89 109.078C140.412 109.441 138.864 109.402 137.406 108.964C136.039 108.583 134.684 108.035 133.248 107.993C132.513 107.982 131.783 108.127 131.108 108.418C130.432 108.709 129.826 109.14 129.329 109.681C128.054 110.999 127.329 112.697 126.678 114.381C125.955 116.251 125.233 118.205 123.73 119.603C123.547 119.772 123.821 120.045 124.003 119.876C126.619 117.444 126.861 113.594 128.906 110.785C129.86 109.475 131.215 108.444 132.886 108.38C134.348 108.324 135.745 108.888 137.127 109.286C138.542 109.734 140.046 109.828 141.507 109.561C143.027 109.218 144.478 108.619 145.798 107.789C148.798 105.968 151.493 103.686 153.784 101.028C156.416 98.0087 158.512 94.5614 159.981 90.8353C160.072 90.6047 159.698 90.5083 159.607 90.7374Z" fill="white"/>
<path id="Vector_3" d="M148.162 105.992C148.958 106.927 150.06 107.549 151.272 107.747C152.484 107.945 153.727 107.705 154.779 107.071C154.991 106.942 154.801 106.606 154.588 106.735C153.61 107.328 152.452 107.551 151.324 107.364C150.196 107.178 149.171 106.594 148.436 105.719C148.275 105.528 148.003 105.803 148.162 105.992Z" fill="white"/>
<path id="Vector_4" d="M138.074 109.248C138.254 106.744 139.371 104.4 141.202 102.683C141.384 102.513 141.11 102.24 140.929 102.41C139.026 104.2 137.869 106.642 137.688 109.248C137.671 109.496 138.057 109.495 138.074 109.248Z" fill="white"/>
<path id="Vector_5" d="M155.928 97.8532C155.544 97.5554 155.241 97.167 155.045 96.723C154.849 96.2791 154.766 95.7933 154.804 95.3094C154.824 95.0614 154.438 95.063 154.418 95.3095C154.378 95.8443 154.471 96.3806 154.686 96.8717C154.902 97.3627 155.234 97.7934 155.655 98.1263C155.692 98.161 155.74 98.1803 155.791 98.1803C155.842 98.1803 155.891 98.161 155.928 98.1262C155.964 98.0899 155.984 98.0408 155.984 97.9897C155.984 97.9386 155.964 97.8895 155.928 97.8532Z" fill="white"/>
<path id="Vector_6" d="M134.548 75.1484C134.531 75.303 134.514 75.4575 134.494 75.6137C134.254 77.6901 133.846 79.7437 133.273 81.7541C133.231 81.9102 133.187 82.0678 133.141 82.2224C131.71 87.0511 129.395 91.5722 126.313 95.5558C125.086 97.1398 123.739 98.6282 122.286 100.008C120.278 101.913 117.95 103.82 116.726 106.207C116.595 106.454 116.48 106.71 116.381 106.971L122.808 119.73C122.837 119.752 122.864 119.775 122.893 119.797L123.126 120.318C123.206 120.252 123.288 120.182 123.368 120.116C123.414 120.078 123.459 120.037 123.506 119.999C123.536 119.973 123.567 119.947 123.596 119.925C123.606 119.916 123.616 119.907 123.624 119.9C123.653 119.878 123.677 119.854 123.703 119.834C124.16 119.443 124.615 119.049 125.067 118.651C125.07 118.649 125.07 118.649 125.072 118.645C128.513 115.601 131.73 112.243 134.336 108.504C134.414 108.391 134.495 108.277 134.571 108.159C135.736 106.467 136.761 104.683 137.635 102.824C138.11 101.804 138.534 100.761 138.904 99.6988C139.855 96.9521 140.368 94.073 140.424 91.1669C140.535 85.3737 138.791 79.6094 134.852 75.4623C134.751 75.3563 134.652 75.253 134.548 75.1484Z" fill="#F0F0F0"/>
<path id="Vector_7" d="M134.4 75.2588C136.339 82.2479 136.026 89.6702 133.506 96.4713C132.99 97.9451 132.244 99.3283 131.297 100.57C130.335 101.75 129.075 102.65 127.648 103.178C126.326 103.697 124.915 104.075 123.743 104.906C123.149 105.34 122.654 105.895 122.29 106.534C121.926 107.173 121.701 107.882 121.63 108.614C121.406 110.434 121.849 112.226 122.343 113.963C122.892 115.891 123.492 117.886 123.133 119.907C123.089 120.152 123.472 120.205 123.515 119.96C124.14 116.444 122.015 113.224 121.957 109.751C121.93 108.13 122.391 106.491 123.687 105.433C124.821 104.508 126.276 104.118 127.618 103.604C129.018 103.109 130.276 102.279 131.282 101.186C132.289 99.9969 133.087 98.6448 133.64 97.1878C134.939 93.9276 135.717 90.4834 135.946 86.9815C136.23 82.9862 135.828 78.9718 134.758 75.1121C134.691 74.8732 134.335 75.0215 134.4 75.2588Z" fill="white"/>
<path id="Vector_8" d="M134.447 94.3288C135.645 94.5967 136.9 94.4298 137.987 93.858C139.073 93.2862 139.922 92.3467 140.38 91.2073C140.471 90.9764 140.117 90.8228 140.025 91.054C139.6 92.1158 138.81 92.9909 137.797 93.5212C136.784 94.0516 135.615 94.2024 134.5 93.9463C134.258 93.891 134.206 94.2738 134.447 94.3288Z" fill="white"/>
<path id="Vector_9" d="M128.352 103.003C126.988 100.895 126.468 98.3512 126.897 95.8777C126.94 95.6326 126.557 95.5793 126.514 95.8241C126.073 98.399 126.62 101.045 128.044 103.235C128.18 103.444 128.487 103.21 128.352 103.003Z" fill="white"/>
<path id="Vector_10" d="M135.747 83.1558C135.261 83.1488 134.785 83.0213 134.362 82.7849C133.938 82.5485 133.579 82.2104 133.318 81.8012C133.185 81.5909 132.878 81.8249 133.01 82.0338C133.3 82.4846 133.697 82.8574 134.164 83.1196C134.632 83.3819 135.157 83.5256 135.693 83.5383C135.744 83.5437 135.794 83.5297 135.835 83.4992C135.875 83.4686 135.903 83.4238 135.911 83.3738C135.918 83.3231 135.905 83.2718 135.874 83.231C135.843 83.1902 135.797 83.1631 135.747 83.1558Z" fill="white"/>
<path id="Vector_11" d="M0.0996297 129.352C0.636956 123.715 3.95926 118.081 9.26377 116.099C7.31706 121.941 7.49955 128.284 9.77895 134.004C10.666 136.207 11.882 138.565 11.1721 140.832C10.7305 142.242 9.58257 143.344 8.28437 144.05C6.98608 144.755 5.53311 145.116 4.09825 145.469L3.82086 145.712C1.38029 140.603 -0.437699 134.989 0.0996297 129.352Z" fill="#F0F0F0"/>
<path id="Vector_12" d="M9.31997 116.204C6.30065 119.789 4.48768 124.234 4.13857 128.908C4.04556 129.913 4.11151 130.926 4.33402 131.911C4.58176 132.862 5.07988 133.731 5.77662 134.425C6.41325 135.085 7.14094 135.687 7.60595 136.491C7.83788 136.906 7.97948 137.365 8.02147 137.838C8.06347 138.312 8.00491 138.789 7.84963 139.238C7.49184 140.367 6.74957 141.301 5.99196 142.189C5.15078 143.174 4.26145 144.185 3.92872 145.469C3.8884 145.624 3.64932 145.553 3.68958 145.397C4.26847 143.163 6.38333 141.843 7.35185 139.818C7.80378 138.873 7.97366 137.786 7.49672 136.815C7.07965 135.967 6.32979 135.346 5.6794 134.683C4.98978 134.016 4.47405 133.189 4.17726 132.277C3.90535 131.307 3.80046 130.298 3.86709 129.293C3.981 127.028 4.45033 124.795 5.2579 122.676C6.16617 120.252 7.48236 118.001 9.14953 116.021C9.25277 115.899 9.42254 116.082 9.31997 116.204Z" fill="white"/>
<path id="Vector_13" d="M4.16241 127.397C3.38616 127.232 2.69385 126.796 2.20911 126.168C1.72437 125.539 1.47877 124.759 1.51617 123.967C1.51799 123.934 1.53229 123.904 1.55604 123.882C1.5798 123.86 1.61116 123.848 1.64352 123.849C1.67588 123.849 1.7067 123.863 1.72951 123.886C1.75231 123.909 1.7653 123.939 1.76575 123.972C1.72956 124.71 1.95841 125.437 2.411 126.021C2.86358 126.605 3.51009 127.008 4.23384 127.158C4.39108 127.19 4.31875 127.429 4.16241 127.397Z" fill="white"/>
<path id="Vector_14" d="M5.40973 134.133C6.77818 133.261 7.76793 131.906 8.18166 130.338C8.22253 130.182 8.46162 130.254 8.42081 130.409C7.98722 132.041 6.95435 133.449 5.52832 134.352C5.39234 134.438 5.27449 134.218 5.40973 134.133Z" fill="white"/>
<path id="Vector_15" d="M6.40442 120.482C6.69147 120.608 7.00543 120.661 7.3181 120.636C7.63076 120.612 7.93235 120.509 8.19579 120.339C8.33061 120.251 8.44833 120.472 8.31438 120.559C8.02246 120.745 7.68924 120.858 7.34385 120.886C6.99846 120.914 6.6514 120.858 6.33301 120.721C6.30192 120.71 6.27594 120.689 6.26037 120.66C6.24479 120.631 6.24078 120.597 6.24915 120.566C6.25876 120.534 6.28047 120.507 6.30954 120.492C6.33862 120.476 6.37271 120.472 6.40442 120.482Z" fill="white"/>
<path id="Vector_16" d="M24.8074 125.663C24.7248 125.72 24.6422 125.777 24.5595 125.837C23.4523 126.61 23.4839 127.475 22.5164 128.417C22.4404 128.489 22.3646 128.562 22.2909 128.636C19.985 130.933 18.1256 133.638 16.8071 136.613C16.2836 137.798 15.8509 139.021 15.5129 140.271C15.0461 141.997 14.6774 143.907 13.6964 145.336C13.5958 145.486 13.4859 145.63 13.3674 145.767L4.13901 146.032C4.11774 146.022 4.09642 146.014 4.07504 146.004L3.70706 146.032C3.71999 145.966 3.73482 145.898 3.74775 145.832C3.75509 145.794 3.76449 145.756 3.77183 145.718C3.77738 145.692 3.78303 145.667 3.78659 145.644C3.7884 145.635 3.79032 145.627 3.7922 145.62C3.79575 145.597 3.80151 145.576 3.80513 145.555C3.88694 145.175 3.97156 144.795 4.05899 144.416C4.05894 144.414 4.05893 144.414 4.06093 144.411C4.69948 141.512 5.67975 138.698 6.9812 136.029C7.02111 135.95 7.06087 135.869 7.10499 135.79C7.70918 134.608 8.40898 133.477 9.1974 132.409C9.63099 131.825 10.0938 131.264 10.5842 130.727C11.8538 129.343 13.3332 128.167 14.9683 127.243C18.228 125.4 20.9677 124.621 24.5356 125.587C24.6268 125.611 24.7161 125.636 24.8074 125.663Z" fill="#F0F0F0"/>
<path id="Vector_17" d="M24.7901 125.781C20.2686 126.813 17.1208 129.297 14.0772 132.805C13.398 133.551 12.8406 134.4 12.4256 135.32C12.0503 136.229 11.9253 137.222 12.0636 138.196C12.1744 139.107 12.3931 140.025 12.2805 140.947C12.2159 141.418 12.0525 141.87 11.801 142.273C11.5494 142.676 11.2155 143.022 10.821 143.287C9.85536 143.974 8.70065 144.272 7.5613 144.525C6.29626 144.805 4.97786 145.077 3.93901 145.902C3.81314 146.002 3.66539 145.8 3.79107 145.701C5.59847 144.265 8.08201 144.484 10.0746 143.45C11.0044 142.968 11.7945 142.202 11.9978 141.141C12.1755 140.212 11.9508 139.265 11.8307 138.344C11.6819 137.396 11.7674 136.426 12.0798 135.518C12.4467 134.58 12.9704 133.711 13.6287 132.949C15.0834 131.209 16.8025 129.709 18.7233 128.503C20.9058 127.116 22.2428 126.108 24.7638 125.533C24.92 125.497 24.9452 125.746 24.7901 125.781Z" fill="white"/>
<path id="Vector_18" d="M15.0064 131.613C14.4859 131.014 14.1954 130.249 14.1867 129.455C14.178 128.662 14.4516 127.891 14.9587 127.281C15.0618 127.157 15.258 127.312 15.1548 127.435C14.6815 128.003 14.4267 128.721 14.4363 129.46C14.446 130.199 14.7194 130.91 15.2074 131.465C15.3133 131.585 15.1117 131.733 15.0064 131.613Z" fill="white"/>
<path id="Vector_19" d="M11.9467 137.742C13.5639 137.87 15.17 137.384 16.4448 136.381C16.571 136.281 16.7188 136.483 16.5927 136.582C15.2642 137.624 13.5918 138.126 11.9092 137.989C11.7488 137.976 11.7872 137.729 11.9467 137.742Z" fill="white"/>
<path id="Vector_20" d="M20.9597 127.441C21.1128 127.715 21.3314 127.946 21.5961 128.115C21.8607 128.283 22.163 128.383 22.4758 128.406C22.6363 128.417 22.5977 128.664 22.4383 128.653C22.0928 128.626 21.7591 128.515 21.4663 128.33C21.1735 128.144 20.9306 127.89 20.7587 127.589C20.7401 127.562 20.7325 127.529 20.7375 127.497C20.7424 127.464 20.7595 127.435 20.7852 127.415C20.8119 127.395 20.8453 127.387 20.8779 127.392C20.9106 127.397 20.94 127.415 20.9597 127.441Z" fill="white"/>
<path id="Vector_21" d="M115.221 0.836922H108.909C109.199 1.54864 109.31 2.32083 109.231 3.08546C109.153 3.85009 108.888 4.5837 108.459 5.22166C108.03 5.85962 107.451 6.38235 106.773 6.74381C106.095 7.10527 105.338 7.29436 104.569 7.29442H76.8643C76.0957 7.29436 75.3388 7.10527 74.6605 6.74382C73.9821 6.38236 73.4031 5.85963 72.9743 5.22166C72.5456 4.5837 72.2803 3.85009 72.2019 3.08545C72.1234 2.32082 72.2343 1.54863 72.5246 0.836914H66.6286C64.012 0.836912 61.5026 1.87634 59.6524 3.72655C57.8022 5.57675 56.7628 8.08617 56.7628 10.7028V135.744C56.7628 137.04 57.0179 138.323 57.5137 139.52C58.0096 140.717 58.7363 141.804 59.6524 142.72C60.5685 143.636 61.6561 144.363 62.8531 144.859C64.0501 145.355 65.333 145.61 66.6286 145.61H115.221C116.517 145.61 117.8 145.355 118.997 144.859C120.194 144.363 121.281 143.636 122.198 142.72C123.114 141.804 123.84 140.717 124.336 139.52C124.832 138.323 125.087 137.04 125.087 135.744V10.7028C125.087 9.40716 124.832 8.12425 124.336 6.92727C123.84 5.73029 123.114 4.64269 122.198 3.72656C121.281 2.81043 120.194 2.08372 118.997 1.58791C117.8 1.09211 116.517 0.83692 115.221 0.836922Z" fill="white"/>
<path id="Vector_22" d="M115.221 146.146H66.6287C63.8707 146.143 61.2266 145.046 59.2765 143.096C57.3263 141.146 56.2293 138.502 56.2262 135.744V10.7027C56.2293 7.94478 57.3263 5.30072 59.2764 3.35057C61.2266 1.40042 63.8706 0.303444 66.6286 0.300293H73.3229L73.0214 1.03948C72.7643 1.66972 72.6661 2.35352 72.7356 3.03063C72.805 3.70774 73.0399 4.35738 73.4196 4.92231C73.7993 5.48725 74.312 5.95015 74.9127 6.27022C75.5134 6.5903 76.1837 6.75773 76.8643 6.75777H104.569C105.25 6.75768 105.92 6.59022 106.521 6.27013C107.121 5.95004 107.634 5.48715 108.014 4.92223C108.393 4.35731 108.628 3.70769 108.698 3.0306C108.767 2.35351 108.669 1.66973 108.412 1.03948L108.111 0.300293H115.221C117.979 0.303421 120.623 1.40039 122.574 3.35054C124.524 5.3007 125.621 7.94477 125.624 10.7027V135.744C125.621 138.502 124.524 141.146 122.574 143.096C120.623 145.046 117.979 146.143 115.221 146.146ZM66.6286 1.37337C64.1552 1.3762 61.7838 2.36001 60.0349 4.10899C58.2859 5.85797 57.3021 8.22928 57.2992 10.7027V135.744C57.302 138.217 58.2859 140.589 60.0348 142.338C61.7838 144.087 64.1551 145.07 66.6286 145.073H115.221C117.695 145.07 120.066 144.087 121.815 142.338C123.564 140.589 124.548 138.217 124.551 135.744V10.7027C124.548 8.22929 123.564 5.85796 121.815 4.10898C120.066 2.36 117.695 1.37619 115.221 1.37339H109.645C109.832 2.14197 109.842 2.94293 109.674 3.71585C109.506 4.48876 109.165 5.21346 108.676 5.83528C108.187 6.4571 107.563 6.95981 106.852 7.3055C106.141 7.65119 105.36 7.83082 104.569 7.83086H76.8643C76.0735 7.83055 75.293 7.65072 74.5817 7.30495C73.8705 6.95918 73.247 6.45647 72.7582 5.83472C72.2695 5.21297 71.9282 4.48839 71.7602 3.7156C71.5922 2.9428 71.6018 2.14195 71.7882 1.37339L66.6286 1.37337Z" fill="#E4E4E4"/>
<path id="Vector_23" d="M115.586 20.054H100.932C100.768 20.054 100.61 19.9885 100.493 19.8719C100.376 19.7554 100.311 19.5973 100.311 19.4325C100.311 19.2677 100.376 19.1096 100.493 18.9931C100.61 18.8765 100.768 18.811 100.932 18.811H115.586C115.668 18.8109 115.748 18.8268 115.824 18.858C115.9 18.8891 115.968 18.9349 116.026 18.9926C116.084 19.0503 116.13 19.1189 116.161 19.1944C116.192 19.2699 116.209 19.3508 116.209 19.4325C116.209 19.5142 116.192 19.5951 116.161 19.6706C116.13 19.7461 116.084 19.8147 116.026 19.8724C115.968 19.9301 115.9 19.9759 115.824 20.007C115.748 20.0382 115.668 20.0541 115.586 20.054Z" fill="white"/>
<path id="Vector_24" d="M115.586 22.8425H100.932C100.768 22.8425 100.61 22.777 100.493 22.6605C100.376 22.544 100.311 22.3859 100.311 22.2211C100.311 22.0562 100.376 21.8982 100.493 21.7816C100.61 21.6651 100.768 21.5996 100.932 21.5996H115.586C115.668 21.5994 115.748 21.6154 115.824 21.6465C115.9 21.6777 115.968 21.7234 116.026 21.7812C116.084 21.8389 116.13 21.9075 116.161 21.9829C116.192 22.0584 116.209 22.1393 116.209 22.2211C116.209 22.3028 116.192 22.3837 116.161 22.4592C116.13 22.5347 116.084 22.6032 116.026 22.661C115.968 22.7187 115.9 22.7644 115.824 22.7956C115.748 22.8267 115.668 22.8427 115.586 22.8425Z" fill="white"/>
<path id="Vector_25" d="M115.586 25.6306H100.932C100.768 25.6306 100.61 25.5651 100.493 25.4486C100.376 25.332 100.311 25.174 100.311 25.0092C100.311 24.8443 100.376 24.6863 100.493 24.5697C100.61 24.4532 100.768 24.3877 100.932 24.3877H115.586C115.668 24.3875 115.748 24.4035 115.824 24.4346C115.9 24.4658 115.968 24.5115 116.026 24.5693C116.084 24.627 116.13 24.6955 116.161 24.771C116.192 24.8465 116.209 24.9274 116.209 25.0092C116.209 25.0909 116.192 25.1718 116.161 25.2473C116.13 25.3228 116.084 25.3913 116.026 25.449C115.968 25.5068 115.9 25.5525 115.824 25.5837C115.748 25.6148 115.668 25.6308 115.586 25.6306Z" fill="white"/>
<path id="Vector_26" d="M41.4717 143.431L43.9269 143.431L45.095 133.961H41.4715L41.4717 143.431Z" fill="#FFB6B6"/>
<path id="Vector_27" d="M40.8455 142.63L45.6808 142.629C46.498 142.629 47.282 142.954 47.8599 143.532C48.4377 144.11 48.7624 144.894 48.7624 145.711V145.811L40.8457 145.811L40.8455 142.63Z" fill="#2F2E41"/>
<path id="Vector_28" d="M31.8722 141.146L34.1882 141.961L38.4341 133.416L35.0158 132.213L31.8722 141.146Z" fill="#FFB6B6"/>
<path id="Vector_29" d="M31.5476 140.182L36.1087 141.787C36.8796 142.059 37.5113 142.625 37.8645 143.362C38.2178 144.099 38.2638 144.946 37.9926 145.717L37.9593 145.811L30.4915 143.183L31.5476 140.182Z" fill="#2F2E41"/>
<path id="Vector_30" d="M30.4131 88.3857L28.9266 90.0048L34.9351 115.016L41.1082 139.407H46.0436L43.205 116.131V92.1928L30.4131 88.3857Z" fill="#2F2E41"/>
<path id="Vector_31" d="M45.7716 90.3917L46.4221 92.8139L42.9456 114.415L38.0089 137.305H32.4189L36.6158 109.239L41.744 88.5806L45.7716 90.3917Z" fill="#2F2E41"/>
<path id="Vector_32" d="M48.8441 54.5034L46.6711 50.6025L41.5164 49.7588C38.9469 50.4383 36.6469 51.8876 34.925 53.9121C33.2031 55.9366 32.1418 58.4395 31.8835 61.0846L29.0886 89.7101C29.0886 89.7101 43.3896 96.2922 46.4221 92.5864L50.6392 60.0945C50.806 59.087 50.7301 58.0542 50.4179 57.0818C50.1057 56.1095 49.5662 55.2255 48.8441 54.5034Z" fill="#3F3D56"/>
<path id="Vector_33" d="M45.1809 48.4937C48.2017 48.4937 50.6506 46.0448 50.6506 43.0239C50.6506 40.0031 48.2017 37.5542 45.1809 37.5542C42.16 37.5542 39.7111 40.0031 39.7111 43.0239C39.7111 46.0448 42.16 48.4937 45.1809 48.4937Z" fill="#FFB6B6"/>
<path id="Vector_34" d="M52.3665 40.0423C52.0297 39.9481 51.7424 39.7272 51.5649 39.4259C51.4443 39.2243 51.3801 38.9941 51.379 38.7592C51.3779 38.5243 51.44 38.2935 51.5587 38.0908C51.307 37.9603 51.0303 37.8852 50.7472 37.8708C50.464 37.8564 50.1811 37.903 49.9175 38.0074C50.1403 37.813 50.3137 37.5685 50.4235 37.2941C50.5334 37.0196 50.5766 36.7231 50.5496 36.4287C49.8932 36.6508 49.2368 36.873 48.5805 37.0951C48.8185 36.913 48.9942 36.6614 49.0832 36.3752C49.1721 36.089 49.1701 35.7822 49.0772 35.4972C48.5384 36.2647 47.4226 36.3678 46.5133 36.1388C45.6039 35.9099 44.7638 35.4296 43.8373 35.2851C43.3233 35.205 42.7983 35.2312 42.2948 35.3623C41.7914 35.4933 41.3202 35.7264 40.9105 36.047C40.5009 36.3676 40.1614 36.769 39.9132 37.2262C39.665 37.6834 39.5134 38.1867 39.4677 38.7049C39.2287 38.7352 39.0013 38.8258 38.8069 38.9682C38.6126 39.1105 38.4576 39.2999 38.3565 39.5186C38.1595 39.959 38.0698 40.4398 38.0947 40.9216C38.1111 42.0713 38.3911 43.2019 38.9132 44.2263C39.4353 45.2508 40.1856 46.1418 41.1062 46.8306L41.4085 46.7266C41.3737 46.1049 41.5799 45.4937 41.9842 45.0201C42.3884 44.5465 42.9597 44.2469 43.5791 44.1836C44.3814 44.1332 45.3288 44.4545 45.9014 43.8903C46.4252 43.3741 46.2378 42.45 46.6653 41.8517C47.0372 41.3312 47.7769 41.2098 48.4043 41.3345C49.0317 41.4592 49.6026 41.7769 50.2119 41.9716C50.8213 42.1662 51.535 42.221 52.0588 41.854C52.2751 41.6802 52.45 41.4606 52.5709 41.2109C52.6918 40.9613 52.7557 40.6879 52.758 40.4105C52.7641 40.2983 52.7631 40.1859 52.7552 40.0738C52.6248 40.0808 52.494 40.0702 52.3665 40.0423Z" fill="#2F2E41"/>
<path id="Vector_35" d="M72.1769 91.1162H15.8504V107.427H72.1769V91.1162Z" fill="white"/>
<path id="Vector_36" d="M72.689 107.939H15.3383V90.604H72.689V107.939ZM16.3624 106.915H71.6649V91.6281H16.3624L16.3624 106.915Z" fill="#E4E4E4"/>
<path id="Vector_37" d="M61.2354 96.7247H26.7919C26.5982 96.7247 26.4125 96.6478 26.2755 96.5108C26.1386 96.3739 26.0616 96.1881 26.0616 95.9944C26.0616 95.8008 26.1386 95.615 26.2755 95.4781C26.4125 95.3411 26.5982 95.2642 26.7919 95.2642H61.2354C61.429 95.2642 61.6148 95.3411 61.7517 95.4781C61.8887 95.615 61.9656 95.8008 61.9656 95.9944C61.9656 96.1881 61.8887 96.3739 61.7517 96.5108C61.6148 96.6478 61.429 96.7247 61.2354 96.7247Z" fill="white"/>
<path id="Vector_38" d="M61.2354 100.002H26.7919C26.5984 100.001 26.413 99.9243 26.2764 99.7873C26.1397 99.6504 26.0629 99.4649 26.0629 99.2714C26.0629 99.0779 26.1397 98.8924 26.2764 98.7554C26.413 98.6185 26.5984 98.5414 26.7919 98.541H61.2354C61.4288 98.5414 61.6143 98.6185 61.7509 98.7554C61.8876 98.8924 61.9644 99.0779 61.9644 99.2714C61.9644 99.4649 61.8876 99.6504 61.7509 99.7873C61.6143 99.9243 61.4288 100.001 61.2354 100.002Z" fill="white"/>
<path id="Vector_39" d="M47.2937 103.279H26.7919C26.5982 103.279 26.4125 103.202 26.2755 103.065C26.1386 102.928 26.0616 102.742 26.0616 102.549C26.0616 102.355 26.1386 102.169 26.2755 102.032C26.4125 101.895 26.5982 101.818 26.7919 101.818H47.2937C47.4874 101.818 47.6731 101.895 47.8101 102.032C47.947 102.169 48.024 102.355 48.024 102.549C48.024 102.742 47.947 102.928 47.8101 103.065C47.6731 103.202 47.4874 103.279 47.2937 103.279Z" fill="white"/>
<path id="Vector_40" d="M49.4247 93.1541C49.2058 92.9573 49.0326 92.7148 48.9175 92.4439C48.8024 92.1729 48.7481 91.88 48.7584 91.5857C48.7688 91.2915 48.8435 91.0031 48.9774 90.7409C49.1112 90.4787 49.3009 90.249 49.5332 90.068L47.2277 83.293L50.8263 84.231L52.464 90.5209C52.7421 90.9312 52.8601 91.4292 52.7956 91.9207C52.7311 92.4122 52.4886 92.8629 52.1139 93.1875C51.7393 93.512 51.2586 93.6879 50.763 93.6818C50.2673 93.6756 49.7912 93.4879 49.4247 93.1541Z" fill="#FFB6B6"/>
<path id="Vector_41" d="M47.832 88.638L44.1011 74.8456L43.7744 58.0419C43.7579 57.3542 43.9651 56.6796 44.365 56.1198C44.7649 55.56 45.3358 55.1451 45.9917 54.9377C46.4826 54.7801 47.0044 54.7435 47.5125 54.8313C48.0206 54.919 48.4999 55.1284 48.9095 55.4415C49.3191 55.7547 49.6469 56.1623 49.8648 56.6296C50.0827 57.0969 50.1843 57.61 50.1609 58.1251L49.5599 71.347L52.5199 87.1299L47.832 88.638Z" fill="#3F3D56"/>
<path id="Vector_42" d="M35.947 93.555C35.728 93.3582 35.5549 93.1157 35.4398 92.8447C35.3247 92.5738 35.2704 92.2809 35.2807 91.9866C35.2911 91.6924 35.3658 91.404 35.4996 91.1418C35.6335 90.8795 35.8232 90.6499 36.0554 90.4689L33.7499 83.6938L37.3486 84.6319L38.9862 90.9218C39.2644 91.332 39.3824 91.8301 39.3179 92.3216C39.2534 92.813 39.0108 93.2638 38.6362 93.5883C38.2616 93.9129 37.7809 94.0888 37.2852 94.0826C36.7896 94.0765 36.3134 93.8888 35.947 93.555Z" fill="#FFB6B6"/>
<path id="Vector_43" d="M33.7875 87.995L32.1914 73.8135L34.422 57.1373C34.4788 56.7128 34.6204 56.304 34.8383 55.9353C35.0562 55.5665 35.346 55.2454 35.6906 54.9909C36.0351 54.7364 36.4272 54.5538 36.8438 54.4539C37.2603 54.3539 37.6926 54.3388 38.1151 54.4093C38.5376 54.4799 38.9416 54.6346 39.303 54.8644C39.6645 55.0941 39.9761 55.3942 40.2193 55.7468C40.4625 56.0994 40.6323 56.4973 40.7186 56.9169C40.8049 57.3364 40.806 57.769 40.7219 58.189L38.1204 71.1665L38.65 87.216L33.7875 87.995Z" fill="#3F3D56"/>
<path id="Vector_44" d="M155.6 137.533H69.3729V117.688H155.6V137.533Z" fill="white"/>
<path id="Vector_45" d="M81.8174 124.25C81.5946 124.25 81.3809 124.338 81.2233 124.496C81.0658 124.653 80.9773 124.867 80.9773 125.09C80.9773 125.312 81.0658 125.526 81.2233 125.684C81.3809 125.841 81.5946 125.93 81.8174 125.93H143.159C143.382 125.929 143.595 125.841 143.752 125.683C143.909 125.526 143.998 125.312 143.998 125.09C143.998 124.867 143.909 124.654 143.752 124.496C143.595 124.339 143.382 124.25 143.159 124.25H81.8174Z" fill="#E6E6E6"/>
<path id="Vector_46" d="M81.8175 129.291C81.5946 129.29 81.3807 129.378 81.2229 129.535C81.065 129.693 80.976 129.906 80.9755 130.129C80.9751 130.352 81.0631 130.566 81.2203 130.724C81.3776 130.881 81.5911 130.97 81.8139 130.971H120.595C120.705 130.971 120.815 130.949 120.917 130.907C121.019 130.865 121.112 130.803 121.19 130.725C121.268 130.647 121.33 130.555 121.372 130.453C121.415 130.351 121.436 130.241 121.436 130.131C121.436 130.02 121.415 129.911 121.372 129.809C121.33 129.707 121.268 129.614 121.19 129.536C121.112 129.458 121.019 129.396 120.917 129.354C120.815 129.312 120.705 129.29 120.595 129.291H81.8175Z" fill="#E6E6E6"/>
<path id="Vector_47" d="M155.6 137.533H69.3729V117.688H155.6V137.533ZM70.7903 136.115H154.183V119.106H70.7903V136.115Z" fill="#E5E5E5"/>
<path id="Vector_48" d="M19.7268 80.4588C19.0147 80.4588 18.3185 80.2476 17.7264 79.852C17.1343 79.4564 16.6729 78.894 16.4004 78.2361C16.1278 77.5782 16.0565 76.8543 16.1955 76.1559C16.3344 75.4575 16.6773 74.8159 17.1808 74.3124C17.6844 73.8088 18.3259 73.4659 19.0243 73.327C19.7228 73.1881 20.4467 73.2594 21.1046 73.5319C21.7625 73.8044 22.3248 74.2659 22.7205 74.858C23.1161 75.4501 23.3272 76.1462 23.3272 76.8583C23.3272 77.8132 22.9479 78.729 22.2727 79.4042C21.5975 80.0794 20.6817 80.4588 19.7268 80.4588Z" fill="#F0F0F0"/>
<path id="Vector_49" d="M36.1538 29.4375C35.3679 29.4375 34.5996 29.2044 33.9462 28.7678C33.2927 28.3312 32.7834 27.7106 32.4827 26.9845C32.1819 26.2584 32.1032 25.4594 32.2565 24.6886C32.4099 23.9178 32.7883 23.2098 33.344 22.6541C33.8997 22.0984 34.6078 21.7199 35.3786 21.5666C36.1494 21.4133 36.9484 21.492 37.6744 21.7927C38.4005 22.0935 39.0211 22.6028 39.4577 23.2562C39.8944 23.9097 40.1274 24.6779 40.1274 25.4638C40.1274 25.9857 40.0246 26.5024 39.8249 26.9845C39.6253 27.4666 39.3326 27.9046 38.9636 28.2736C38.5946 28.6426 38.1565 28.9353 37.6744 29.135C37.1923 29.3347 36.6756 29.4375 36.1538 29.4375Z" fill="#F0F0F0"/>
<path id="Vector_50" d="M138.648 57.8382C137.972 57.8382 137.312 57.6377 136.75 57.2622C136.188 56.8867 135.75 56.353 135.491 55.7286C135.232 55.1041 135.165 54.417 135.296 53.7541C135.428 53.0912 135.754 52.4823 136.232 52.0044C136.71 51.5264 137.319 51.2009 137.981 51.0691C138.644 50.9372 139.331 51.0049 139.956 51.2635C140.58 51.5222 141.114 51.9602 141.49 52.5222C141.865 53.0842 142.066 53.7449 142.066 54.4208C142.066 55.3271 141.705 56.1964 141.065 56.8372C140.424 57.4781 139.555 57.8382 138.648 57.8382Z" fill="#F0F0F0"/>
<path id="Vector_51" d="M117.012 36.0547H64.631V75.61H117.012V36.0547Z" fill="white"/>
<path id="Vector_52" d="M117.698 76.2958H63.9451V35.3687H117.698V76.2958ZM65.317 74.924H116.326V36.7405H65.317V74.924Z" fill="#E4E4E4"/>
<path id="Vector_53" d="M116.417 36.8628H65.5227L116.417 75.2254V36.8628Z" fill="#F0F0F0"/>
<path id="Vector_54" d="M145.874 145.826C144.349 145.826 142.859 145.374 141.591 144.527C140.323 143.68 139.335 142.476 138.752 141.067C138.168 139.658 138.016 138.108 138.313 136.613C138.611 135.118 139.345 133.744 140.423 132.666C141.501 131.588 142.875 130.854 144.37 130.556C145.865 130.259 147.415 130.412 148.824 130.995C150.233 131.578 151.437 132.567 152.284 133.834C153.131 135.102 153.583 136.592 153.583 138.117C153.583 139.129 153.383 140.132 152.996 141.067C152.609 142.002 152.041 142.852 151.325 143.568C150.609 144.284 149.759 144.852 148.824 145.239C147.889 145.627 146.886 145.826 145.874 145.826Z" fill="white"/>
<path id="Vector_55" d="M148.916 137.357H146.634V135.075C146.634 134.874 146.554 134.68 146.412 134.538C146.269 134.395 146.076 134.315 145.874 134.315C145.672 134.315 145.479 134.395 145.336 134.538C145.194 134.68 145.113 134.874 145.113 135.075V137.357H142.832C142.631 137.357 142.438 137.437 142.295 137.58C142.153 137.722 142.073 137.916 142.073 138.117C142.073 138.319 142.153 138.512 142.295 138.654C142.438 138.797 142.631 138.877 142.832 138.878H145.113V141.159C145.113 141.361 145.194 141.554 145.336 141.697C145.479 141.839 145.672 141.919 145.874 141.919C146.076 141.919 146.269 141.839 146.412 141.697C146.554 141.554 146.634 141.361 146.634 141.159V138.878H148.916C149.016 138.878 149.115 138.858 149.207 138.82C149.299 138.782 149.383 138.726 149.454 138.655C149.525 138.585 149.581 138.501 149.619 138.408C149.658 138.316 149.677 138.217 149.677 138.117C149.677 138.017 149.658 137.918 149.619 137.826C149.581 137.733 149.525 137.65 149.454 137.579C149.383 137.508 149.299 137.452 149.207 137.414C149.115 137.376 149.016 137.357 148.916 137.357Z" fill="white"/>
<path id="Vector_56" d="M155.281 146.25H0.409875C0.325319 146.25 0.244307 146.216 0.184603 146.156C0.124899 146.096 0.0913696 146.015 0.0913696 145.931C0.0913696 145.846 0.124899 145.765 0.184603 145.705C0.244307 145.645 0.325319 145.612 0.409875 145.611H155.281C155.365 145.612 155.446 145.645 155.506 145.705C155.566 145.765 155.599 145.846 155.599 145.931C155.599 146.015 155.566 146.096 155.506 146.156C155.446 146.216 155.365 146.25 155.281 146.25Z" fill="#CACACA"/>
</g>
<defs>
<clipPath id="clip0_1_236">
<rect width="159.99" height="145.95" fill="white" transform="translate(0.00494385 0.300293)"/>
</clipPath>
</defs>
</svg>
